<svg xmlns="http://www.w3.org/2000/svg" width="40.69" height="80" viewBox="0 0 40.69 80">
  <defs>
    <style>
      .cls-1 {
        fill: #ff3fb4;
        fill-rule: evenodd;
      }
    </style>
  </defs>
  <path id="fb.svg" class="cls-1" d="M1095.94,784h-17.16V748.131h-9.45V731.658h9.45v-9.25c0-8.492,5.3-18.408,20.23-18.408a79.069,79.069,0,0,1,9.29.516l1.59,0.207-0.39,15.416-1.74-.017c-0.01,0-3.93-.037-8.21-0.037-3.18,0-3.61.789-3.61,3.925v7.652H1110l-0.78,16.473h-13.27V784h-0.01Zm-13.61-3.56h10.06V744.573h13.44l0.44-9.355h-13.88V724.006c0-3.7.85-7.484,7.16-7.484,2.53,0,4.94.012,6.49,0.024l0.21-8.666c-1.56-.14-4.17-0.32-7.24-0.32-12.3,0-16.69,7.669-16.69,14.848v12.81h-9.45v9.355h9.45V780.44h0.01Z" transform="translate(-1069.31 -704)"/>
</svg>
