<svg xmlns="http://www.w3.org/2000/svg" width="76.875" height="77" viewBox="0 0 76.875 77">
  <defs>
    <style>
      .cls-1 {
        fill: #ff3fb4;
        fill-rule: evenodd;
      }
    </style>
  </defs>
  <path id="insta.svg" class="cls-1" d="M867.662,707H833.215A21.256,21.256,0,0,0,812,728.249v34.5A21.256,21.256,0,0,0,833.215,784h34.447a21.258,21.258,0,0,0,21.217-21.249v-34.5A21.257,21.257,0,0,0,867.662,707ZM884.9,764.3a15.718,15.718,0,0,1-15.688,15.712H831.668A15.718,15.718,0,0,1,815.98,764.3V726.7a15.718,15.718,0,0,1,15.688-15.712H869.21A15.718,15.718,0,0,1,884.9,726.7v37.6h0ZM850.439,725.66a19.841,19.841,0,1,0,19.81,19.841A19.848,19.848,0,0,0,850.439,725.66Zm0,35.35A15.51,15.51,0,1,1,865.926,745.5,15.515,15.515,0,0,1,850.439,761.01ZM871.407,722a2.5,2.5,0,0,0-1.761.733,2.492,2.492,0,1,0,3.524,0A2.5,2.5,0,0,0,871.407,722Z" transform="translate(-812 -707)"/>
</svg>
