<svg xmlns="http://www.w3.org/2000/svg" width="98.717" height="58.031" viewBox="0 0 98.717 58.031">
  <defs>
    <style>
      .cls-1 {
        fill: #ff3fb4;
        fill-rule: evenodd;
      }
    </style>
  </defs>
  <path id="vk.svg" class="cls-1" d="M1024.14,759.557a83.167,83.167,0,0,0-6.92-7.149c-0.82-.786-1.67-1.6-2.49-2.409h-0.01a5.037,5.037,0,0,1-1.7-2.426,4.739,4.739,0,0,1,1.2-2.617c1.3-1.846,2.7-3.7,4.04-5.483,1.2-1.589,2.43-3.232,3.62-4.885l0.27-.371c2.31-3.226,4.7-6.562,5.98-10.626a4.524,4.524,0,0,0-3.98-6.573,9.659,9.659,0,0,0-1.66-.109l-15-.013a5.278,5.278,0,0,0-5.38,3.682c-0.78,1.987-1.71,4.29-2.782,6.474a52.707,52.707,0,0,1-8.448,13.12l-0.169.181a5.072,5.072,0,0,1-.894.834,4.181,4.181,0,0,1-.861-2.522v-0.058l-0.013-17.467a1.97,1.97,0,0,0-.018-0.266c-0.336-2.492-.992-4.99-4.906-5.769a1.952,1.952,0,0,0-.381-0.037h-15.6a6.921,6.921,0,0,0-5.734,2.824,3.046,3.046,0,0,0-.83,2.955,2.992,2.992,0,0,0,2.447,1.779,3.272,3.272,0,0,1,2.852,3.146,51.288,51.288,0,0,1,.208,12.106,9.909,9.909,0,0,1-.648,2.993,0.34,0.34,0,1,1-.651.194,12.972,12.972,0,0,1-2.967-3.343,82.18,82.18,0,0,1-8.946-16.714,5.917,5.917,0,0,0-5.537-4.059c-4.806-.081-9.252-0.079-13.585.006-2.044.036-3.477,0.684-4.261,1.927s-0.756,2.834.086,4.721c6.015,13.478,11.476,23.284,17.707,31.792,4.388,5.991,8.805,10.15,13.9,13.087a35.9,35.9,0,0,0,18.395,4.6c0.8,0,1.607-.02,2.428-0.059,4.321-.2,6.079-1.931,6.271-6.172a12.783,12.783,0,0,1,1.214-5.635,1.565,1.565,0,0,1,.725-0.792,1.662,1.662,0,0,1,1.078.376,11.428,11.428,0,0,1,2.1,1.9c0.587,0.649,1.181,1.319,1.756,1.966,1.223,1.379,2.487,2.805,3.812,4.165a12.584,12.584,0,0,0,10.272,4.194l13.73,0.007h0c0.04,0,.09,0,0.13,0a4.635,4.635,0,0,0,3.76-2.424,6.2,6.2,0,0,0-.04-5.856A29.219,29.219,0,0,0,1024.14,759.557Zm0.18,9.1a0.715,0.715,0,0,1-.54.415l-13.73-.007h0c-0.05,0-.11,0-0.16.007-2.7.227-5-.731-7.22-3.014-1.27-1.294-2.5-2.685-3.692-4.03-0.581-.655-1.182-1.333-1.786-2a15.037,15.037,0,0,0-2.864-2.55,4.8,4.8,0,0,0-7.393,1.835,16.648,16.648,0,0,0-1.694,7.355c-0.067,1.479-.315,1.871-0.419,1.97a3.694,3.694,0,0,1-2.105.429c-7.284.345-13.4-.97-18.689-4.021-4.605-2.655-8.636-6.469-12.688-12-6.059-8.273-11.39-17.854-17.285-31.064a0.635,0.635,0,1,1,.661-1.061c4.289-.084,8.688-0.087,13.451-0.007,0.652,0.01,1.394.207,1.956,1.594,1.169,2.895,2.417,5.626,3.76,8.218a80.268,80.268,0,0,0,5.619,9.29,16.461,16.461,0,0,0,3.954,4.323,4.013,4.013,0,0,0,6.5-1.922,13.713,13.713,0,0,0,.943-4.191,55.1,55.1,0,0,0-.236-13.037,7.211,7.211,0,0,0-4.107-5.856,3.064,3.064,0,0,1,1.482-.3h15.4a1.673,1.673,0,0,1,1.1.5,4.7,4.7,0,0,1,.48,1.744l0.013,17.306c-0.035,1.66.765,5.339,3.49,6.348l0.067,0.023c2.48,0.817,4.121-.947,5-1.895l0.157-.169a56.621,56.621,0,0,0,9.12-14.087c1.13-2.311,2.09-4.7,2.91-6.763a1.434,1.434,0,0,1,1.66-1.185h0.04l15.02,0.013a6.214,6.214,0,0,1,.99.053,3.162,3.162,0,0,1,1.11.335,3.112,3.112,0,0,1-.21,1.134c-1.09,3.456-3.19,6.393-5.42,9.5l-0.27.372c-1.16,1.614-2.38,3.24-3.56,4.811-1.36,1.811-2.77,3.684-4.11,5.573-2.86,4.016-2.6,6.681.96,10.185,0.84,0.828,1.71,1.652,2.54,2.45a79.473,79.473,0,0,1,6.6,6.8,25.36,25.36,0,0,1,3.09,4.474A2.283,2.283,0,0,1,1024.32,768.653Z" transform="translate(-929.813 -715.063)"/>
</svg>
